<?xml version="1.0" encoding="UTF-8" standalone="no"?>
<svg width="299px" height="59px" viewBox="0 0 299 59" version="1.1" xmlns="http://www.w3.org/2000/svg" xmlns:xlink="http://www.w3.org/1999/xlink">
    <!-- Generator: Sketch 3.8.3 (29802) - http://www.bohemiancoding.com/sketch -->
    <title>LOGO</title>
    <desc>Created with Sketch.</desc>
    <defs></defs>
    <g id="Welcome" stroke="none" stroke-width="1" fill="none" fill-rule="evenodd">
        <g id="MEMBER" transform="translate(-79.000000, -40.000000)" fill="#FFFFFF">
            <g id="LOGO" transform="translate(79.000000, 27.000000)">
                <g id="1465658172_Photo_equipment_1-2" transform="translate(0.000000, 13.000000)">
                    <g id="Group">
                        <path d="M33.4952607,57.5501688 L24.7207103,31.3167647 C24.5247314,30.7736872 23.7976215,29.2714797 21.7251689,29.2714797 L19.9566255,29.2714797 C18.2231121,29.2714797 18.2997995,27.9883441 18.2997995,27.9883441 C18.2997995,27.044862 19.2692794,26.9518945 19.5978043,26.9454512 L22.1398488,26.9454512 C23.4530017,26.9454512 23.7152536,26.3121676 23.760698,25.9237291 L23.760698,25.4368003 C23.7512304,25.1431703 23.6006959,24.2365071 21.9893143,24.2365071 L11.4471673,24.2365071 C9.75341773,24.2365071 9.82915834,25.555541 9.82915834,25.555541 L9.82915834,25.6199739 C9.8367324,25.8915127 9.97211876,26.9454512 11.5797133,26.9454512 L14.1217578,26.9454512 C14.1217578,26.9454512 15.2881633,26.9279623 15.2881633,28.0444928 L15.2881633,28.1273351 C15.281536,28.3997943 15.1452028,29.2705592 13.632284,29.2705592 L11.936641,29.2705592 C9.55649212,29.2337404 8.88618767,31.2596956 8.87956037,31.276264 L0.187377888,57.2639025 C0.176963553,57.3007213 -0.305882875,58.8655208 1.01673764,58.8655208 L1.93225234,58.8655208 C2.19829125,58.846191 2.65936225,58.7191661 2.86480867,58.1024509 L10.8819529,34.1361653 C11.0324874,33.7118285 11.7008983,32.2114619 13.6303905,32.2169847 C13.8964294,32.2225075 15.2872165,32.3578167 15.2872165,34.5595817 L15.2872165,47.9404587 C15.2872165,49.6129532 16.3163421,49.7804788 16.668536,49.788763 L16.758478,49.788763 C17.094577,49.7804788 18.2988528,49.6111123 18.2988528,47.5934413 L18.2988528,34.1591771 C18.2988528,32.4691936 19.528691,32.2602468 19.8894057,32.2344736 C21.709074,32.3246797 22.416302,33.4209599 22.6539382,33.9861287 L30.6720292,57.9533348 C30.9522695,58.7891218 31.6329883,58.859998 31.821393,58.8655208 L32.3828204,58.8655208 C33.6789317,58.875646 33.6107651,57.9938354 33.4952607,57.5501688 L33.4952607,57.5501688 Z" id="Shape"></path>
                        <path d="M29.0767425,4.54672651 L24.2170352,4.54672651 C22.0404392,4.54672651 21.6570023,3.39613862 21.6011436,2.80243526 L21.6011436,2.45725889 C21.6011436,2.45725889 21.5661136,0.0456266642 18.3812207,0.0456266642 L14.800583,0.0456266642 C11.9177058,0.0456266642 12.0445714,2.34404104 12.0445714,2.34404104 C12.0445714,2.34404104 12.1259925,4.54672651 9.35861976,4.54672651 L4.30009335,4.54672651 C3.67618003,4.55869263 1.68325506,4.79985585 1.68325506,7.45449224 L1.68325506,18.5691713 C1.69556291,19.151829 1.92467827,21.3130933 4.6617548,21.3130933 L29.0540203,21.3130933 C31.4455302,21.3130933 31.8933466,19.8219314 31.9615132,19.0155994 L31.9615132,7.43056001 C31.9615132,4.46940701 29.0767425,4.54672651 29.0767425,4.54672651 L29.0767425,4.54672651 Z M29.1231336,16.9068019 C29.0767425,17.5796657 28.7538981,18.8259825 26.960739,18.8259825 L6.96332277,18.8259825 C4.72140053,18.8259825 4.53394251,17.1001007 4.52163466,16.6555135 L4.52163466,8.98707532 C4.53204899,8.5783865 4.70435889,6.97860909 6.75408932,6.97860909 L10.9160362,6.97860909 C14.054538,6.97860909 14.3234172,3.72106464 14.3234172,3.72106464 L14.3300445,3.72474652 C14.5288636,2.61926167 15.5144384,2.50880523 15.7946786,2.50236194 L17.5670091,2.50236194 C17.5670091,2.50236194 19.036377,2.48119112 19.3014692,3.83796437 L19.3166173,3.83060061 C19.3166173,3.83060061 19.3800501,6.97768862 22.6832877,6.97768862 L26.9105608,6.97768862 C27.3621643,6.98781379 29.1240803,7.14429375 29.1240803,9.01192802 L29.1240803,16.9068019 L29.1231336,16.9068019 Z" id="Shape"></path>
                        <path d="M16.8228575,8.60692108 C14.5241298,8.60692108 12.6609106,10.4193271 12.6609106,12.6533086 C12.6609106,14.88729 14.5250766,16.7006166 16.8228575,16.7006166 C19.122532,16.7006166 20.9848044,14.8882105 20.9848044,12.6533086 C20.9848044,10.4184067 19.122532,8.60692108 16.8228575,8.60692108 L16.8228575,8.60692108 Z M16.8720889,14.6212741 C15.7539681,14.6212741 14.8460274,13.7385431 14.8460274,12.6496267 C14.8460274,11.5607103 15.7539681,10.6788998 16.8720889,10.6788998 C17.9921033,10.6788998 18.8990971,11.5607103 18.8990971,12.6496267 C18.8990971,13.7376226 17.9921033,14.6212741 16.8720889,14.6212741 L16.8720889,14.6212741 Z" id="Shape"></path>
                    </g>
                </g>
                <text id="PicStreet" font-family="BrushScriptMT, Brush Script MT" font-size="72" font-style="italic" font-weight="normal">
                    <tspan x="65.453125" y="64">PicStreet</tspan>
                </text>
            </g>
        </g>
    </g>
</svg>